<svg xmlns="http://www.w3.org/2000/svg" viewBox="0 0 64 64" role="img" aria-labelledby="title desc">
  <title id="title">AI Video Admin</title>
  <desc id="desc">Intelligent backend server icon</desc>
  <defs>
    <linearGradient id="background" x1="8" y1="5" x2="56" y2="59" gradientUnits="userSpaceOnUse">
      <stop stop-color="#42B9F2"/>
      <stop offset="0.5" stop-color="#3479ED"/>
      <stop offset="1" stop-color="#152D59"/>
    </linearGradient>
    <linearGradient id="shine" x1="18" y1="15" x2="47" y2="49" gradientUnits="userSpaceOnUse">
      <stop stop-color="#FFFFFF"/>
      <stop offset="1" stop-color="#DCEEFF"/>
    </linearGradient>
  </defs>
  <rect x="2" y="2" width="60" height="60" rx="16" fill="url(#background)"/>
  <path d="M11 21C17 10 31 5 45 9" fill="none" stroke="#FFFFFF" stroke-linecap="round" stroke-opacity="0.18" stroke-width="3"/>
  <g fill="url(#shine)">
    <rect x="13" y="15" width="38" height="12" rx="4"/>
    <rect x="13" y="29" width="38" height="12" rx="4"/>
    <rect x="13" y="43" width="38" height="8" rx="4"/>
  </g>
  <g fill="#2B82EE">
    <circle cx="20" cy="21" r="2"/>
    <circle cx="20" cy="35" r="2"/>
    <circle cx="20" cy="47" r="2"/>
  </g>
  <g fill="#8AA5C9">
    <rect x="26" y="19.5" width="15" height="3" rx="1.5"/>
    <rect x="26" y="33.5" width="11" height="3" rx="1.5"/>
    <rect x="26" y="45.5" width="13" height="3" rx="1.5"/>
  </g>
  <path d="M48 8.5 49.7 13l4.5 1.7-4.5 1.8L48 21l-1.8-4.5-4.5-1.8 4.5-1.7L48 8.5Z" fill="#BFF3FF" stroke="#FFFFFF" stroke-linejoin="round" stroke-width="1.25"/>
</svg>
